<svg width="90" height="88" viewBox="0 0 90 88" fill="none" xmlns="http://www.w3.org/2000/svg">
<g clip-path="url(#clip0_805_7)">
<path d="M78.627 8.758C76.257 3.594 71.054 0 65 0C56.716 0 50 6.716 50 15V25.08C50 27.781 47.855 29.992 45.156 30.069C30.214 30.494 15.386 32.884 1.055 37.184L0 37.5C0 57.027 13.995 73.273 32.5 76.782V87.5H55V82.5H47.5V76.781C65.878 73.296 79.8 57.245 79.99 37.898C80.822 38.333 87.5 41.346 87.5 41.346V28.455L80 32.205V24.05L90 22.05V13.308L78.627 8.758ZM42.5 82.5H37.5V77.408C38.325 77.459 39.155 77.493 39.993 77.493H40H40.014C40.85 77.493 41.677 77.459 42.5 77.408V82.5ZM72.5 32.205L65 28.455V41.347C65 41.347 71.658 38.344 72.49 37.91C72.269 55.635 57.789 69.99 39.993 69.993C33.647 69.993 27.724 68.159 22.715 65H40C46.893 65 52.5 59.393 52.5 52.5H47.5C47.5 56.636 44.136 60 40 60H16.581C15.108 58.468 13.781 56.796 12.629 55H25V50H10.003C9.076 47.785 8.386 45.448 7.969 43.018C20.175 39.757 32.732 37.925 45.369 37.566C52.171 37.372 57.5 31.888 57.5 25.08V15C57.5 10.864 60.865 7.5 65 7.5C69.135 7.5 72.5 10.864 72.5 15V32.205ZM85 17.951L80 18.951V15C80 14.894 79.986 14.792 79.984 14.686L85 16.692V17.951Z" fill="black"/>
<path d="M67.5 12.5H62.5V17.5H67.5V12.5Z" fill="black"/>
</g>
<defs>
<clipPath id="clip0_805_7">
<rect width="90" height="88" fill="white"/>
</clipPath>
</defs>
</svg>
